<?xml version="1.0" encoding="UTF-8" standalone="no"?>
<svg
   xmlns:dc="http://purl.org/dc/elements/1.1/"
   xmlns:cc="http://creativecommons.org/ns#"
   xmlns:rdf="http://www.w3.org/1999/02/22-rdf-syntax-ns#"
   xmlns:svg="http://www.w3.org/2000/svg"
   xmlns="http://www.w3.org/2000/svg"
   xmlns:sodipodi="http://sodipodi.sourceforge.net/DTD/sodipodi-0.dtd"
   xmlns:inkscape="http://www.inkscape.org/namespaces/inkscape"
   version="1.1"
   id="Layer_1"
   x="0px"
   y="0px"
   width="601"
   height="370"
   viewBox="0 0 601 370"
   enable-background="new 0 0 595 842"
   xml:space="preserve">
<path
   style="fill:#97ca3e"
   inkscape:connector-curvature="0"
   id="path5"
   d="m 97.319956,247.03033 0,0" /><path
   style="fill:#0067ac"
   inkscape:connector-curvature="0"
   d="m 479.08103,91.11344 c -4.7754,-4.105557 -10.35739,-7.864902 -16.97371,-7.960558 -8.39354,0 -14.46763,5.554593 -14.46763,14.157713 0,7.532265 6.07409,13.629075 13.57451,13.629075 7.14039,0 12.49898,-3.58605 17.86226,-7.34997 l -1.96842,38.95991 c -7.0994,2.33302 -15.13291,4.4656 -23.22109,4.4656 -30.72127,0 -52.69377,-17.32918 -52.69377,-49.166967 0,-28.101155 20.54618,-50.064524 48.94368,-50.064524 9.68755,0 19.65306,1.790804 28.9396,4.820941 v 38.50878"
   id="path7" /><path
   style="fill:#0067ac"
   inkscape:connector-curvature="0"
   d="m 343.91076,144.80512 h 45.13879 V 50.007382 h -45.13879 l 1.42632,11.186698 h -1.06641 c -6.74393,-9.291103 -16.21277,-13.401228 -27.64102,-13.401228 -26.79344,0 -41.26096,26.082504 -41.26096,50.064525 0,23.079763 14.28978,49.157833 40.00336,49.157833 13.04132,0 20.54618,-5.71419 28.89862,-14.64525 h 1.06641 l -1.42632,12.43516 M 321.09081,96.959691 c 0,-6.97635 4.64789,-13.073158 11.97045,-13.073158 7.31812,0 12.27582,5.372291 12.27582,12.713245 0,7.340832 -3.52236,14.330752 -12.27582,14.330752 -8.39798,-0.005 -11.97045,-6.46141 -11.97045,-13.970839 z"
   id="path9" /><path
   style="fill:#0067ac"
   inkscape:connector-curvature="0"
   d="m 600.85908,105.17093 c 2.31944,-35.5743 -24.29183,-57.373511 -58.05249,-57.373511 -30.18818,0 -54.48001,19.65306 -54.48001,51.121678 0,32.771883 27.32665,48.109683 57.15937,48.109683 21.7902,0 47.33962,-10.51229 53.41372,-33.32768 h -44.838 c -0.89361,4.37895 -4.4656,7.77369 -9.28654,7.77369 -9.64657,0 -10.8996,-8.60312 -10.8996,-16.29929 h 66.98355 M 533.87553,85.549714 c 0,-6.64828 3.39474,-12.403319 10.35739,-12.403319 6.61174,0 11.25507,5.928207 11.25507,12.403319 h -21.61246 z"
   id="path11" /><path
   style="fill:#ffffff"
   inkscape:connector-curvature="0"
   d="m 550.48463,215.54801 h -25.23049 c 16.88261,8.09275 -13.30557,21.4667 6.38402,40.532 h 19.56197 c 9.96094,-9.12707 0.88868,-24.23258 0.71094,-24.16876 17.01925,-10.85863 1.8819,-18.63245 -1.42632,-16.36324"
   id="path13" /><path
   style="fill:none;stroke:#ffffff;stroke-width:0.86121809;stroke-linecap:round;stroke-linejoin:round;stroke-miterlimit:3.86400008"
   inkscape:connector-curvature="0"
   stroke-miterlimit="3.864"
   d="m 550.48463,215.54801 h -25.23049 c 16.88261,8.09275 -13.30557,21.4667 6.38402,40.532 h 19.56197 c 9.96094,-9.12707 0.88868,-24.23258 0.71094,-24.16876 17.01925,-10.85863 1.8819,-18.63245 -1.42632,-16.36324 z"
   id="path15" /><path
   style="fill:none;stroke:#0067ac;stroke-width:2.93452096;stroke-linecap:round;stroke-linejoin:round;stroke-miterlimit:3.86400008"
   inkscape:connector-curvature="0"
   stroke-miterlimit="3.864"
   d="m 550.48463,215.54801 h -25.23049 c 16.88261,8.09275 -13.30557,21.4667 6.38402,40.532 h 19.56197 c 9.96094,-9.12707 0.88868,-24.23258 0.71094,-24.16876"
   id="path17" /><path
   style="fill:#ffffff"
   inkscape:connector-curvature="0"
   d="m 506.41224,243.99563 h 12.05698 c 6.33836,-0.0741 11.61055,3.12135 11.74262,7.10842 -0.13207,3.88684 -5.40883,7.05842 -11.74262,7.11755 h -12.05698 c -6.47511,-0.0617 -11.7473,-3.23071 -11.7473,-7.11755 0,-3.98707 5.27676,-7.17223 11.7473,-7.10842"
   id="path19" /><path
   style="fill:none;stroke:#0067ac;stroke-width:2.93452096;stroke-linecap:round;stroke-linejoin:round;stroke-miterlimit:3.86400008"
   inkscape:connector-curvature="0"
   stroke-miterlimit="3.864"
   d="m 506.41224,243.99563 h 12.05698 c 6.33836,-0.0741 11.61055,3.12135 11.74262,7.10842 -0.13207,3.88684 -5.40883,7.05842 -11.74262,7.11755 h -12.05698 c -6.47511,-0.0617 -11.7473,-3.23071 -11.7473,-7.11755 0,-3.98707 5.27676,-7.17223 11.7473,-7.10842 z"
   id="path21" /><path
   style="fill:#ffffff"
   inkscape:connector-curvature="0"
   d="m 547.62766,223.01647 c 0.13206,-2.52434 1.69959,-4.56582 3.57247,-4.61137 1.92287,0.0494 3.48583,2.08703 3.56791,4.61137 -0.0864,2.47891 -1.64504,4.50669 -3.56791,4.62963 -1.87288,-0.12343 -3.43584,-2.15072 -3.57247,-4.62963"
   id="path23" /><path
   style="fill:none;stroke:#0067ac;stroke-width:2.93452096;stroke-linecap:round;stroke-linejoin:round"
   inkscape:connector-curvature="0"
   d="m 557.22856,216.628 c 6.0741,8.73062 -1.69502,13.04588 -1.78624,13.15067 m -7.81466,-6.7622 c 0.13206,-2.52434 1.69959,-4.56582 3.57247,-4.61137 1.92287,0.0494 3.48583,2.08703 3.56791,4.61137 -0.0864,2.47891 -1.64504,4.50669 -3.56791,4.62963 -1.87288,-0.12343 -3.43584,-2.15072 -3.57247,-4.62963 z"
   id="path25" /><polyline
   style="fill:#00a76d"
   points="562.854,812.533 553.495,812.533 555.289,810.972 553.574,810.115 551.78,811.051 550.134,809.411   546.155,811.674 545.449,810.269 543.352,811.285 544.518,809.334 544.126,807.617 541.245,808.086 540.696,807.149   538.119,808.474 536.404,806.838 535.698,807.461 538.197,810.818 536.718,812.377 535.698,811.598 534.611,812.064   533.523,811.518 532.112,812.064 532.268,810.818 531.563,809.88 529.23,811.128 528.76,810.661 523.301,814.406 521.813,815.733   523.301,816.98 524.781,815.654 526.183,816.98 527.438,815.889 529.074,817.214 529.691,816.512 530.867,817.37 532.347,815.654   533.523,815.889 534.14,815.42 535.473,817.058 534.532,818.072 535.385,818.618 539.912,815.185 541.01,815.889 544.597,813.468   545.851,815.03 546.704,815.107 548.262,815.964 551.388,813.468 563.168,813.468 562.854,812.533 "
   id="polyline27"
   transform="matrix(4.5567096,0,0,4.5567096,-1969.1296,-3361.0679)" /><polygon
   style="fill:none;stroke:#00a76d;stroke-width:0.37900001;stroke-linecap:round;stroke-linejoin:round"
   points="535.385,818.618 539.912,815.185 541.01,815.889 544.597,813.468 545.851,815.03 546.704,815.107 548.262,815.964 551.388,813.468 563.168,813.468 562.854,812.533 553.495,812.533 555.289,810.972 553.574,810.115 551.78,811.051 550.134,809.411 546.155,811.674 545.449,810.269 543.352,811.285 544.518,809.334 544.126,807.617 541.245,808.086 540.696,807.149 538.119,808.474 536.404,806.838 535.698,807.461 538.197,810.818 536.718,812.377 535.698,811.598 534.611,812.064 533.523,811.518 532.112,812.064 532.268,810.818 531.563,809.88 529.23,811.128 528.76,810.661 523.301,814.406 521.813,815.733 523.301,816.98 524.781,815.654 526.183,816.98 527.438,815.889 529.074,817.214 529.691,816.512 530.867,817.37 532.347,815.654 533.523,815.889 534.14,815.42 535.473,817.058 534.532,818.072 "
   id="polygon29"
   transform="matrix(4.5567096,0,0,4.5567096,-1969.1296,-3361.0679)" /><polyline
   style="fill:#00a76d"
   points="525.173,807.228 526.418,808.554 516.432,816.122 514.246,815.03 509.327,818.385 508.866,817.917   512.296,815.185 512.296,814.172 508.866,816.435 508.396,815.42 507.612,816.122 506.759,815.497 503.633,818.149 503.172,817.37   505.279,815.42 504.73,814.561 504.574,813.781 502.702,815.262 501.918,814.328 498.488,816.902 498.488,815.497 496.146,814.952   494.274,816.512 493.96,816.045 495.126,814.952 495.048,813.625 493.411,814.328 492.167,813.781 489.668,815.733 489.668,815.03   489.05,814.328 487.718,814.406 486.708,815.654 487.326,813.859 485.219,813.938 483.582,815.42 483.19,814.25 482.181,814.172   481.005,815.185 481.475,813.625 479.995,813.625 478.438,814.641 477.575,813.468 432.328,813.468 432.642,812.533   479.525,812.533 481.093,811.285 482.416,811.285 484.052,810.427 484.915,811.128 485.454,810.739 488.423,811.051   488.658,810.347 489.903,810.582 490.138,809.88 491.226,810.818 492.402,809.88 493.882,810.427 494.274,810.115 494.823,810.347   496.302,809.88 496.851,810.347 499.576,808.554 500.516,809.802 502.545,808.632 502.623,809.646 504.338,809.411 504.73,809.023   505.358,809.88 510.973,806.838 512.374,808.554 514.873,807.228 515.883,808.396 518.617,807.539 521.273,809.1 515.648,812.923   516.432,813.938 525.173,807.228 "
   id="polyline31"
   transform="matrix(4.5567096,0,0,4.5567096,-1969.1296,-3361.0679)" /><polygon
   style="fill:none;stroke:#00a76d;stroke-width:0.37900001;stroke-linecap:round;stroke-linejoin:round"
   points="503.633,818.149 503.172,817.37 505.279,815.42 504.73,814.561 504.574,813.781 502.702,815.262 501.918,814.328 498.488,816.902 498.488,815.497 496.146,814.952 494.274,816.512 493.96,816.045 495.126,814.952 495.048,813.625 493.411,814.328 492.167,813.781 489.668,815.733 489.668,815.03 489.05,814.328 487.718,814.406 486.708,815.654 487.326,813.859 485.219,813.938 483.582,815.42 483.19,814.25 482.181,814.172 481.005,815.185 481.475,813.625 479.995,813.625 478.438,814.641 477.575,813.468 432.328,813.468 432.642,812.533 479.525,812.533 481.093,811.285 482.416,811.285 484.052,810.427 484.915,811.128 485.454,810.739 488.423,811.051 488.658,810.347 489.903,810.582 490.138,809.88 491.226,810.818 492.402,809.88 493.882,810.427 494.274,810.115 494.823,810.347 496.302,809.88 496.851,810.347 499.576,808.554 500.516,809.802 502.545,808.632 502.623,809.646 504.338,809.411 504.73,809.023 505.358,809.88 510.973,806.838 512.374,808.554 514.873,807.228 515.883,808.396 518.617,807.539 521.273,809.1 515.648,812.923 516.432,813.938 525.173,807.228 526.418,808.554 516.432,816.122 514.246,815.03 509.327,818.385 508.866,817.917 512.296,815.185 512.296,814.172 508.866,816.435 508.396,815.42 507.612,816.122 506.759,815.497 "
   id="polygon33"
   transform="matrix(4.5567096,0,0,4.5567096,-1969.1296,-3361.0679)" /><path
   style="fill:#ffffff"
   inkscape:connector-curvature="0"
   d="m 483.2778,256.08001 c 0,7.12669 -6.29281,17.20155 -15.63415,20.62826 -3.61346,5.19912 -35.54233,7.79196 -40.18554,14.2214 l -2.14627,-6.0467 -16.69575,8.17927 c -2.77045,-5.67308 10.93614,17.55246 9.59646,12.07982 35.00913,0.50605 68.6787,-39.2059 97.79603,-38.39486 -7.54584,-6.8623 50.72992,0.4826 44.43254,-9.95637 -1.42632,-0.61097 -70.02294,1.12072 -71.09379,0.36041 -2.18269,-1.30784 -5.88723,-1.14417 -6.06953,-1.07135"
   id="path35" /><path
   style="fill:none;stroke:#ffffff;stroke-width:1.72699296;stroke-linecap:round;stroke-linejoin:round;stroke-miterlimit:3.86400008"
   inkscape:connector-curvature="0"
   stroke-miterlimit="3.864"
   d="m 483.2778,256.08001 c 0,7.12669 -6.29281,17.20155 -15.63415,20.62826 -3.61346,5.19912 -35.54233,7.79196 -40.18554,14.2214 l -2.14627,-6.0467 -16.69575,8.17927 c -2.77045,-5.67308 10.93614,17.55246 9.59646,12.07982 35.00913,0.50605 68.6787,-39.2059 97.79603,-38.39486 -7.54584,-6.8623 50.72992,0.4826 44.43254,-9.95637 -1.42632,-0.61097 -70.02294,1.12072 -71.09379,0.36041 -2.18269,-1.30784 -5.88723,-1.14417 -6.06953,-1.07135 z"
   id="path37" /><polyline
   style="fill:#ffffff"
   points="525.634,786.864 525.477,790.295 529.466,795.757 530.396,790.686 530.396,786.864   525.634,786.864 "
   id="polyline39"
   transform="matrix(4.5567096,0,0,4.5567096,-1969.1296,-3361.0679)" /><polygon
   style="fill:none;stroke:#0072bc;stroke-width:0.75800002;stroke-linecap:round;stroke-linejoin:round"
   points="530.396,786.864 525.634,786.864 525.477,790.295 529.466,795.757 530.396,790.686 "
   id="polygon41"
   transform="matrix(4.5567096,0,0,4.5567096,-1969.1296,-3361.0679)" /><path
   style="fill:#ffffff"
   inkscape:connector-curvature="0"
   d="m 419.28785,195.99974 c -1.02938,31.91518 18.84659,35.35559 18.84659,35.19612 12.09808,-0.69736 17.27906,-27.45427 17.41569,-27.36763 l 1.42633,-13.5107 -6.37946,-9.24556 -29.87826,2.48348 -1.43089,12.44429"
   id="path43" /><path
   style="fill:none;stroke:#ffffff;stroke-width:1.72699296;stroke-linecap:round;stroke-linejoin:round;stroke-miterlimit:3.86400008"
   inkscape:connector-curvature="0"
   stroke-miterlimit="3.864"
   d="m 419.28785,195.99974 c -1.02938,31.91518 18.84659,35.35559 18.84659,35.19612 12.09808,-0.69736 17.27906,-27.45427 17.41569,-27.36763 l 1.42633,-13.5107 -6.37946,-9.24556 -29.87826,2.48348 -1.43089,12.44429 z"
   id="path45" /><path
   style="fill:#ed1c24"
   inkscape:connector-curvature="0"
   d="m 514.22691,225.15361 c -30.32025,1.02938 -56.2207,-31.77398 -56.1796,-31.63266 l -9.96107,-12.09351 -27.37207,2.13257 -2.14627,22.76985 c 0.137,0.0494 -37.01865,26.81627 -57.20491,26.65668 -41.48424,-50.81632 -11.29605,-119.89159 -11.38714,-119.80494 65.73508,10.28444 95.07112,53.43655 94.88882,53.3272 20.90622,-40.46819 75.29057,-65.49823 75.38623,-65.42072 28.39738,70.71562 -1.83179,114.74702 -1.79081,114.83367 l -4.23318,9.23186"
   id="path47" /><path
   style="fill:none;stroke:#ed1c24;stroke-width:3.45398593;stroke-linejoin:round;stroke-miterlimit:3.86400008"
   inkscape:connector-curvature="0"
   stroke-miterlimit="3.864"
   d="m 514.22691,225.15361 c -30.32025,1.02938 -56.2207,-31.77398 -56.1796,-31.63266 l -9.96107,-12.09351 -27.37207,2.13257 -2.14627,22.76985 c 0.137,0.0494 -37.01865,26.81627 -57.20491,26.65668 -41.48424,-50.81632 -11.29605,-119.89159 -11.38714,-119.80494 65.73508,10.28444 95.07112,53.43655 94.88882,53.3272 20.90622,-40.46819 75.29057,-65.49823 75.38623,-65.42072 28.39738,70.71562 -1.83179,114.74702 -1.79081,114.83367 l -4.23318,9.23186 z"
   id="path49" /><path
   style="fill:none;stroke:#0067ac;stroke-width:3.45398593;stroke-linecap:round;stroke-linejoin:round;stroke-miterlimit:3.86400008"
   inkscape:connector-curvature="0"
   stroke-miterlimit="3.864"
   d="m 514.22691,225.15361 c -30.32025,1.02938 -56.2207,-31.77398 -56.1796,-31.63266 m -13.1735,-27.02129 c 20.90621,-40.46818 75.29056,-65.4981 75.38622,-65.42071 28.39738,70.71562 -1.83178,114.74702 -1.79081,114.83367 m -147.50064,15.28324 c 14.51763,-0.69736 40.41339,-18.82832 40.50917,-18.84202 m -50.11019,20.62369 C 319.88332,182.16109 350.0715,113.08594 349.98029,113.17247 c 65.73521,10.28444 90.74241,49.13042 90.65577,49.05303"
   id="path51" /><path
   style="fill:#0067ac"
   inkscape:connector-curvature="0"
   d="m 429.60426,202.05113 c -0.0864,-0.51469 0.49248,-0.89732 1.07135,-1.07135 0.84794,0.1728 1.4262,0.55542 1.4262,1.07135 0,0.44187 -0.58381,0.82079 -1.4262,0.69736 -0.57887,0.12343 -1.16145,-0.25549 -1.07135,-0.69736"
   id="path53" /><path
   style="fill:none;stroke:#0067ac;stroke-width:2.15532351;stroke-linecap:round;stroke-linejoin:round;stroke-miterlimit:3.86400008"
   inkscape:connector-curvature="0"
   stroke-miterlimit="3.864"
   d="m 429.60426,202.05113 c -0.0864,-0.51469 0.49248,-0.89732 1.07135,-1.07135 0.84794,0.1728 1.4262,0.55542 1.4262,1.07135 0,0.44187 -0.58381,0.82079 -1.4262,0.69736 -0.57887,0.12343 -1.16145,-0.25549 -1.07135,-0.69736 z"
   id="path55" /><path
   style="fill:#0067ac"
   inkscape:connector-curvature="0"
   d="m 444.16299,202.75281 c 0,-0.35053 0.57887,-0.72945 1.4262,-0.69736 0.58381,-0.037 1.16145,0.34683 1.07135,0.69736 0.0864,0.60603 -0.48754,0.98865 -1.07135,1.07505 -0.84794,-0.0864 -1.4262,-0.47396 -1.4262,-1.07505"
   id="path57" /><path
   style="fill:none;stroke:#0067ac;stroke-width:2.15532351;stroke-linecap:round;stroke-linejoin:round;stroke-miterlimit:3.86400008"
   inkscape:connector-curvature="0"
   stroke-miterlimit="3.864"
   d="m 444.16299,202.75281 c 0,-0.35053 0.57887,-0.72945 1.4262,-0.69736 0.58381,-0.037 1.16145,0.34683 1.07135,0.69736 0.0864,0.60603 -0.48754,0.98865 -1.07135,1.07505 -0.84794,-0.0864 -1.4262,-0.47396 -1.4262,-1.07505 z"
   id="path59" /><path
   style="fill:none;stroke:#0067ac;stroke-width:3.45398593;stroke-linecap:round;stroke-linejoin:round"
   inkscape:connector-curvature="0"
   d="m 419.28785,195.99974 c -1.02938,31.91518 18.84659,35.35559 18.84659,35.19612 12.09808,-0.69736 17.27906,-27.45427 17.41569,-27.36763 m -14.91407,-21.69454 -16.34484,0.71588"
   id="path61" /><path
   style="fill:#0067ac"
   inkscape:connector-curvature="0"
   d="m 438.48991,214.48642 c -2.10073,-1.64047 -2.81155,1.33511 -4.24232,0 0,4.39721 1.4262,4.7981 3.52237,4.62506 2.37399,0.1728 3.97336,-2.28303 4.64777,-3.5589 -1.38066,-1.49915 -2.67936,-0.037 -3.92782,-1.06641"
   id="path63" /><path
   style="fill:none;stroke:#0072bc;stroke-width:2.44695306;stroke-linecap:round;stroke-linejoin:round;stroke-miterlimit:3.86400008"
   inkscape:connector-curvature="0"
   stroke-miterlimit="3.864"
   d="m 444.51846,195.99974 c 2.22823,-2.57444 5.26293,0.0123 5.35859,0 m -23.12976,-0.71094 c 3.1669,-2.72947 5.75961,-0.137 5.71406,0"
   id="path65" /><path
   style="fill:#0067ac"
   inkscape:connector-curvature="0"
   d="m 467.64822,276.70827 c -3.61346,5.19912 -35.54234,7.79196 -40.18554,14.2214 l -2.14628,-6.0467 -16.69574,8.17927 c -9.77877,-19.35239 -8.48463,-40.07173 -8.53018,-40.17652 5.66852,-10.68546 25.0983,-12.88629 25.22592,-12.8089 l 18.17675,24.88871 4.24231,-23.10704 c 8.52561,-1.80895 20.18615,10.27086 20.27279,10.31641 2.05506,10.30728 -0.5332,24.55151 -0.36041,24.53337"
   id="path67" /><path
   style="fill:none;stroke:#0067ac;stroke-width:3.45398593;stroke-linecap:round;stroke-linejoin:round;stroke-miterlimit:3.86400008"
   inkscape:connector-curvature="0"
   stroke-miterlimit="3.864"
   d="m 483.2778,256.08001 c 0,7.12669 -6.29281,17.20155 -15.63415,20.62826 -3.61346,5.19912 -35.54233,7.79196 -40.18554,14.2214 l -2.14627,-6.0467 -16.69575,8.17927 c -2.77045,-5.67308 10.93614,17.55246 9.59646,12.07982 35.00913,0.50605 68.6787,-39.2059 97.79603,-38.39486"
   id="path69" /><path
   style="fill:#0067ac"
   inkscape:connector-curvature="0"
   d="m 463.00501,296.96736 1.07505,3.5542 27.01228,-20.26822 c -15.85286,12.02057 -27.90997,16.75956 -28.08758,16.71402"
   id="path71" /><path
   style="fill:none;stroke:#0067ac;stroke-width:3.45398593;stroke-linecap:round;stroke-linejoin:round;stroke-miterlimit:3.86400008"
   inkscape:connector-curvature="0"
   stroke-miterlimit="3.864"
   d="m 489.35189,257.15543 h 68.59218 m -68.59218,5.32218 h 68.59218"
   id="path73" /><path
   style="fill:#0067ac"
   inkscape:connector-curvature="0"
   d="m 418.21712,305.14206 c 11.69707,0.21847 23.17542,-4.07371 34.51702,-9.95181 l -2.14171,6.39303 c 15.13291,7.514 32.86767,32.11575 32.68537,32.0064 l -6.73937,7.10385 -4.2833,-5.69135 -5.31317,4.26971 -4.28785,-4.62049 -7.09941,4.62049 2.85709,-5.67765 -3.93239,-6.06052 -9.9565,6.06052 -3.52681,-2.84796 -25.59052,19.19737 -9.95637,-2.13257 24.87501,-19.19737 1.06641,-5.70505 -5.66851,-6.37933 -11.0318,7.10385 -8.88564,0.706 -3.57236,-1.06147 -19.20205,13.87062 c -0.18268,0.0123 19.24303,-22.85649 35.18698,-32.00639"
   id="path75" /><polyline
   style="fill:#0067ac"
   points="498.556,785.531 501.928,785.374 501.928,793.331 498.556,793.133 498.556,806.057   488.364,806.057 488.364,793.102 485.895,793.297 485.895,785.339 488.364,785.495 488.364,778.519 498.556,778.519   498.556,785.531 "
   id="polyline77"
   transform="matrix(4.5567096,0,0,4.5567096,-1969.1296,-3361.0679)" /><path
   style="fill:#0067ac"
   inkscape:connector-curvature="0"
   d="M 74.814371,144.80512 H 119.91663 V 50.007382 H 74.814371 L 76.240572,61.19408 H 75.169224 C 68.388877,51.902977 58.920039,47.792852 47.482661,47.792852 c -26.793445,0 -41.2609591,26.082504 -41.2609591,50.064525 0,23.079763 14.2897791,49.157833 40.0124931,49.157833 13.036747,0 20.541612,-5.71419 28.935029,-14.64525 h 1.071348 l -1.426201,12.43516 M 51.948749,96.959691 c 0,-6.97635 4.64333,-13.073158 11.97046,-13.073158 7.322687,0 12.321363,5.372291 12.321363,12.713245 0,7.340832 -3.572476,14.330752 -12.321363,14.330752 -8.397984,-0.005 -11.97046,-6.46141 -11.97046,-13.970839 z"
   id="path79" /><rect
   style="fill:#0067ac"
   x="128.0002"
   y="0.010905859"
   width="46.082005"
   height="144.78944"
   id="rect81" /><path
   style="fill:#0067ac"
   inkscape:connector-curvature="0"
   d="m 191.6757,107.93681 2.86166,1.79994 c 6.42944,3.93695 15.7161,8.7853 23.57631,8.7853 3.03483,0 6.78961,-1.61764 6.78961,-5.20826 0,-5.19468 -5.54102,-5.37698 -9.29123,-5.91463 -15.36063,-2.15084 -29.65041,-8.425384 -29.65041,-26.342318 0,-23.790585 23.93635,-33.25498 44.30023,-33.25498 11.78828,0 26.38799,2.32401 36.74994,8.042638 l -11.20953,26.292206 c -5.89179,-4.31057 -13.7567,-7.883045 -21.25712,-7.883045 -2.85697,0 -6.60718,0.888675 -6.60718,4.292426 0,4.661473 5.00325,5.030521 11.43281,6.101375 16.43149,2.683923 29.78261,8.420818 29.78261,27.604608 0,24.61989 -24.42389,34.78585 -45.85875,34.78585 -15.00516,0 -29.65041,-4.6342 -43.40254,-10.5123 l 11.78359,-28.58881"
   id="path83" /><rect
   style="fill:#0067ac"
   x="14.975535"
   y="167.10991"
   width="46.040993"
   height="144.7849"
   id="rect85" /><path
   style="fill:#0067ac"
   inkscape:connector-curvature="0"
   d="m 135.9471,311.8997 h 45.14793 V 217.10196 H 135.9471 l 1.43089,11.18213 h -1.07505 c -6.78034,-9.28209 -16.2082,-13.39678 -27.63645,-13.39678 -26.793443,0 -41.265524,26.08262 -41.265524,50.05551 0,23.08878 14.294346,49.17141 40.012374,49.17141 13.03674,0 20.49619,-5.71863 28.8896,-14.65439 h 1.07505 l -1.43089,12.43986 m -22.81995,-47.85 c 0,-6.98091 4.64777,-13.06415 11.92491,-13.06415 7.32257,0 12.32593,5.37242 12.32593,12.71325 0,7.33182 -3.57247,14.31718 -12.32593,14.31718 -8.35244,-0.005 -11.92491,-6.44771 -11.92491,-13.96628 z"
   id="path87" /><path
   style="fill:#0067ac"
   inkscape:connector-curvature="0"
   d="m 237.89436,187.75666 c 0,15.52022 -12.14363,22.30057 -25.35799,22.30057 -13.21905,0 -25.36268,-6.77578 -25.36268,-22.30057 0,-13.7567 10.89961,-22.13641 25.36268,-22.13641 14.46295,0 25.35799,8.38428 25.35799,22.13641 m -48.3147,29.3453 h 46.0819 v 94.79317 h -46.0819 v -94.79317 z"
   id="path89" />
</svg>